# xmcd CD database file
#
# Track frame offsets:
#	150
#	15288
#	57349
#	80365
#	108982
#	125812
#	161834
#	180880
#
# Disc length: 2987 seconds
#
# Revision: 0
# Processed by: cddbd v1.5.1PL0 Copyright (c) Steve Scherf et al.
# Submitted via: CDex 1.51
#
DISCID=5a0ba908
DTITLE=Eberhard Schoener - Spurensicherung
DYEAR=1983
DGENRE=Jazz
TTITLE0=Spuren
TTITLE1=Sunday Morning in Manhattan
TTITLE2=Systeme
TTITLE3=Twilight in Venice
TTITLE4=Hotel Reforma
TTITLE5=Realzeit (Tepotzlan)
TTITLE6=Butterflies
TTITLE7=Tao
EXTD=YEAR: 1983
EXTT0=
EXTT1=
EXTT2=
EXTT3=
EXTT4=
EXTT5=
EXTT6=
EXTT7=
PLAYORDER=
